<?xml version="1.0" encoding="utf-8"?>
<!-- Generator: Adobe Illustrator 19.0.0, SVG Export Plug-In . SVG Version: 6.00 Build 0)  -->
<svg version="1.1" xmlns="http://www.w3.org/2000/svg" xmlns:xlink="http://www.w3.org/1999/xlink" x="0px" y="0px"
	 viewBox="0 0 841.9 595.3" style="enable-background:new 0 0 841.9 595.3;" xml:space="preserve">
<style type="text/css">
	.st0{fill:none;}
	.st1{fill:#F7BC60;}
	.st2{fill:#FFFFFF;}
	.st3{fill:url(#SVGID_1_);}
	.st4{fill-rule:evenodd;clip-rule:evenodd;fill:#FFFFFF;}
	.st5{fill-rule:evenodd;clip-rule:evenodd;fill:none;stroke:#000000;stroke-width:0.2494;stroke-miterlimit:3.8637;}
	.st6{fill-rule:evenodd;clip-rule:evenodd;fill:#E6E7E8;}
	.st7{fill:#6D6E71;}
	.st8{fill:none;stroke:#000000;stroke-width:0.2494;stroke-miterlimit:3.8637;}
	.st9{fill-rule:evenodd;clip-rule:evenodd;fill:#6D6E71;}
	.st10{fill-rule:evenodd;clip-rule:evenodd;fill:#BCBEC0;}
	.st11{fill-rule:evenodd;clip-rule:evenodd;fill:none;stroke:#BCBEC0;stroke-width:0.2494;stroke-miterlimit:3.8637;}
	.st12{fill-rule:evenodd;clip-rule:evenodd;fill:#A7A9AC;}
	.st13{fill-rule:evenodd;clip-rule:evenodd;fill:#D1D3D4;}
	.st14{fill:#BCBEC0;}
	.st15{fill-rule:evenodd;clip-rule:evenodd;fill:none;stroke:#000000;stroke-width:0.25;stroke-miterlimit:3.8637;}
	.st16{fill-rule:evenodd;clip-rule:evenodd;fill:#B11116;}
	.st17{fill:#D71920;}
	.st18{fill-rule:evenodd;clip-rule:evenodd;}
	.st19{fill-rule:evenodd;clip-rule:evenodd;fill:none;stroke:#D71920;stroke-width:0.2494;stroke-miterlimit:3.8637;}
	.st20{fill-rule:evenodd;clip-rule:evenodd;fill:none;stroke:#000000;stroke-width:0.5003;stroke-miterlimit:3.8637;}
	.st21{fill-rule:evenodd;clip-rule:evenodd;fill:none;stroke:#000000;stroke-width:0.2659;stroke-miterlimit:3.8637;}
	.st22{fill:#D1D3D4;}
	.st23{fill:none;stroke:#000000;stroke-width:0.2659;stroke-miterlimit:3.8637;}
	.st24{fill:#A7A9AC;}
	.st25{fill-rule:evenodd;clip-rule:evenodd;fill:none;stroke:#000000;stroke-width:1.0006;stroke-miterlimit:3.8637;}
	.st26{fill-rule:evenodd;clip-rule:evenodd;fill:#CE8A14;}
	.st27{fill:none;stroke:#D1D3D4;stroke-width:0.2494;stroke-miterlimit:3.8637;}
	.st28{fill:#E6E7E8;}
	.st29{fill-rule:evenodd;clip-rule:evenodd;fill:none;stroke:#D1D3D4;stroke-width:0.2494;stroke-miterlimit:3.8637;}
	.st30{fill-rule:evenodd;clip-rule:evenodd;fill:#8B0304;}
	.st31{fill-rule:evenodd;clip-rule:evenodd;fill:none;stroke:#000000;stroke-width:0.2391;stroke-miterlimit:3.8637;}
	.st32{fill:#B11116;}
	.st33{fill:#CE8A14;}
</style>

<g id="FreeVector-Background">
	<linearGradient id="SVGID_1_" gradientUnits="userSpaceOnUse" x1="115.4946" y1="298.2112" x2="729.7563" y2="298.2112" gradientTransform="matrix(0 1 -1 0 718.585 -123.3071)">
		<stop  offset="0" style="stop-color:#B9B2D8"/>
		<stop  offset="1" style="stop-color:#8178B8"/>
	</linearGradient>
	<rect x="-10.2" y="-7.8" class="st3" width="861.1" height="614.3"/>
</g>

<g id="Graphics">
	<g>
		<path class="st4" d="M34.9,215.3l-0.8-0.1v-7h-1.4c1.1-2.3,1.8-3.6,3.1-5.8c2.6-4.4,4.2-6.9,7.5-10.9c2.1-2.6,3.3-4.1,5.9-6.2
			c3-2.5,5-3.6,8.4-5.5c6.4-3.7,10.4-5,17.4-7.5c8.6-3.1,13.7-4,22.6-6.1c13.9-3.3,21.9-4.9,36-7c13,1.1,20.8,0.6,33.4-3.2
			c8.9-2.7,13.7-4.9,21.9-9.2c4.9-2.6,7-4.2,19.8-11.5c16-9.1,32.7-17.7,42.2-20.7l-4-3.7c-0.4-0.4-0.3-1.2,0.7-1.4
			c57.9-13.9,124.5-10.4,188,1.5c0.4,0.1,0.9,0.2,1.3,0.1h12.4l1.8,3.5v7.6c0.2,1.4,0.4,2.2,0.8,3.5c0.3,1.2,0.6,1.9,1,3.1
			c0,0,5.8,16.4,10.4,25.9c11.9,0.4,21.3,3,27.6,6.1c3.8,1.9,12.4,10.4,14.1,12.5c3.4,10,2.8,25.6,2.8,25.6c0,4.5,1.7,4.2,1.7,7
			c5.9,3.4,4.7,3.3,4.8,7.8c0,1.5-2.1-0.2-2.2,2.2c0.9,11-1.6,15-1.2,24c1.8,1.8,1.8,2.4,0,4.8H490c-4.6,0-6-0.5-6.4-4.8
			c-1.6-20.4-20.1-39.1-42.8-39.4c-23.3-0.2-41.8,23.5-41.8,44.5v8.9l-225.6,0l0-5.2c0-26.4-17.9-52.4-43.4-52.4
			c-25.4,0-43.9,22.8-43.9,43.7v6.2l-52.7,0c-0.9,0-1.1-1.9-0.6-2.9c0,0,0.3-0.2,1.1-0.2c0-1.9,0.2-1.8,2.1-2.9l11-5.6
			c-0.3-2.5-0.4-4-0.6-6.5c-0.3-3-0.5-5.1-0.7-7.7l14.5-1.2c0.8,0,1.2-0.7,1.3-1.5c0.3-1.3,0.6-2.9,0.6-2.9c0.3-1-0.7-1.8-2.1-1.6
			l-24.6,2C35.3,215.1,35.1,215.2,34.9,215.3z"/>
		<path class="st5" d="M34.9,215.3l-0.8-0.1v-7h-1.4c1.1-2.3,1.8-3.6,3.1-5.8c2.6-4.4,4.2-6.9,7.5-10.9c2.1-2.6,3.3-4.1,5.9-6.2
			c3-2.5,5-3.6,8.4-5.5c6.4-3.7,10.4-5,17.4-7.5c8.6-3.1,13.7-4,22.6-6.1c13.9-3.3,21.9-4.9,36-7c13,1.1,20.8,0.6,33.4-3.2
			c8.9-2.7,13.7-4.9,21.9-9.2c4.9-2.6,7-4.2,19.8-11.5c16-9.1,32.7-17.7,42.2-20.7l-4-3.7c-0.4-0.4-0.3-1.2,0.7-1.4
			c57.9-13.9,124.5-10.4,188,1.5c0.4,0.1,0.9,0.2,1.3,0.1h12.4l1.8,3.5v7.6c0.2,1.4,0.4,2.2,0.8,3.5c0.3,1.2,0.6,1.9,1,3.1
			c0,0,5.8,16.4,10.4,25.9c11.9,0.4,21.3,3,27.6,6.1c3.8,1.9,12.4,10.4,14.1,12.5c3.4,10,2.8,25.6,2.8,25.6c0,4.5,1.7,4.2,1.7,7
			c5.9,3.4,4.7,3.3,4.8,7.8c0,1.5-2.1-0.2-2.2,2.2c0.9,11-1.6,15-1.2,24c1.8,1.8,1.8,2.4,0,4.8H490c-4.6,0-6-0.5-6.4-4.8
			c-1.6-20.4-20.1-39.1-42.8-39.4c-23.3-0.2-41.8,23.5-41.8,44.5v8.9l-225.6,0l0-5.2c0-26.4-17.9-52.4-43.4-52.4
			c-25.4,0-43.9,22.8-43.9,43.7v6.2l-52.7,0c-0.9,0-1.1-1.9-0.6-2.9c0,0,0.3-0.2,1.1-0.2c0-1.9,0.2-1.8,2.1-2.9l11-5.6
			c-0.3-2.5-0.4-4-0.6-6.5c-0.3-3-0.5-5.1-0.7-7.7l14.5-1.2c0.8,0,1.2-0.7,1.3-1.5c0.3-1.3,0.6-2.9,0.6-2.9c0.3-1-0.7-1.8-2.1-1.6
			l-24.6,2C35.3,215.1,35.1,215.2,34.9,215.3z"/>
	</g>
	
	<!-- Main car body and parts -->
	<g id="car-body">
		<path class="st7" d="M207.9,143.8c27.8-16.3,34.6-19.2,40.6-21.7c9.6-4,27.4-9.3,58.2-11.1c3.4-0.2,5.5-0.2,8.4-0.3l15.1,0
			c10.5,0,16.5,0.2,27,0.9c10.9,0.7,17,1.2,27.9,2.5c11.9,1.4,24.2,3.3,30.5,4.7c5.5,1.2,8.3,3.9,7.3,8.7c-0.6,2.7-1,4.2-1.8,6.9
			c-1.8,6.7-3.6,13.6-4.9,17.1c-1.1,3-3.2,7.5-10.1,8c-3.5,0.3-5.8,0.2-9.4,0.4c-21.3,0.9-33.3,1.8-54.6,3.1l-13.7,0.8l-14.9,1
			l-105.6,5.3l-1.2,0.1v-25.6L207.9,143.8z"/>
		
		<!-- Hood area -->
		<g id="hood-area">
			<path class="st6" d="M46,201.4c9.2-15.9,26.1-24,41.5-28.9c6.4-2,11-2.2,13.4-0.6c3.8,2.6,2,4-1.9,8.1c-7.2,7.7-15,13.8-25.2,17.1
				c-3.8,1.2-7.7,1.6-11.6,2.2C56.8,200.2,51.5,200.9,46,201.4z"/>
		</g>
		
		<!-- Trunk area -->
		<g id="trunk-area">
			<path class="st9" d="M489,244.5c-1.5,1.3-3.5,2-5.8,1.9c-2-0.1-3.6-0.6-4.9-1.7c0-0.5,0-1.1,0-1.7c0-20.4-16.6-37-37-37
				c-20.4,0-37,16.6-37,37c0,4.1,0.7,8,1.9,11.6l-7.1,2.4v-12.1c0-21,18.5-44.7,41.8-44.5c22.7,0.2,41.1,19,42.8,39.4
				C484,243.7,485.2,244.4,489,244.5z"/>
		</g>
		
		<!-- Doors -->
		<g id="doors">
			<path class="st10" d="M154.3,155.5c44.6-26.6,73.4-40.5,92.3-45c0,0.1,0.1,0.2,0.2,0.3l4,3.7c-9.6,3.1-26.3,11.7-42.2,20.7
				c-12.8,7.2-14.8,8.9-19.8,11.5c-7.8,4.1-12.5,6.3-20.6,8.8H154.3z"/>
		</g>
		
		<!-- Bumpers -->
		<g id="bumpers">
			<path class="st12" d="M58.7,198.5c1.7-3.8,7.4-11,13.4-12.5c3-0.7,5.1-1,7.9,0.4c1.3,0.7,2.5,1.6,2.9,2.3c0.4,0.6-0.6,1-1,1.6
				c-0.7,1-1,1.6-1.9,2.4c-1.7,1.6-3.2,1.8-5.4,2.5C70.6,196.4,65,197.7,58.7,198.5z"/>
		</g>
	</g>
	
	<!-- Wheels -->
	<g id="wheels">
		<g id="front-wheel">
			<path class="st9" d="M86.2,246.1V240c0-20.9,18.5-43.7,43.9-43.7c25.4,0,43.4,26,43.4,52.4l0,8.9c-2.9-1.1-5.9-2.8-8.8-5.1
				c0.8-3,1.2-6.1,1.2-9.4c0-20.4-16.6-37-37-37c-20.4,0-37,16.6-37,37c0,3.6,0.5,7.1,1.5,10.4l-11.3-2.3
				C86.7,250.4,86.2,246.1,86.2,246.1z"/>
		</g>
		<g id="rear-wheel">
			<path class="st9" d="M489,244.5c-1.5,1.3-3.5,2-5.8,1.9c-2-0.1-3.6-0.6-4.9-1.7c0-0.5,0-1.1,0-1.7c0-20.4-16.6-37-37-37
				c-20.4,0-37,16.6-37,37c0,4.1,0.7,8,1.9,11.6l-7.1,2.4v-12.1c0-21,18.5-44.7,41.8-44.5c22.7,0.2,41.1,19,42.8,39.4
				C484,243.7,485.2,244.4,489,244.5z"/>
		</g>
	</g>
</g>
</svg>